HIERARCHY
ROOT Hips
{
 OFFSET 0.000000 0.000000 0.000000
 CHANNELS 6 Xposition Yposition Zposition Yrotation Xrotation Zrotation
 JOINT Chest
 {
  OFFSET 0.000000 9.588913 -0.003946
  CHANNELS 3 Yrotation Xrotation Zrotation
  JOINT Chest2
  {
   OFFSET 0.000000 9.541882 0.008053
   CHANNELS 3 Yrotation Xrotation Zrotation
   JOINT Chest3
   {
    OFFSET 0.000000 9.501360 0.000000
    CHANNELS 3 Yrotation Xrotation Zrotation
    JOINT Chest4
    {
     OFFSET 0.000000 9.491660 0.000000
     CHANNELS 3 Yrotation Xrotation Zrotation
     JOINT Neck
     {
      OFFSET 0.000000 14.331917 0.000000
      CHANNELS 3 Yrotation Xrotation Zrotation
      JOINT Head
      {
       OFFSET 0.000000 8.884799 0.017034
       CHANNELS 3 Yrotation Xrotation Zrotation
       End Site
       {
        OFFSET 0.000000 16.896195 0.008993
       }
      }
     }
     JOINT RightCollar
     {
      OFFSET -2.923010 9.499495 0.000000
      CHANNELS 3 Yrotation Xrotation Zrotation
      JOINT RightShoulder
      {
       OFFSET -13.795216 0.000000 0.000000
       CHANNELS 3 Yrotation Xrotation Zrotation
       JOINT RightElbow
       {
        OFFSET -30.272209 0.000000 0.000000
        CHANNELS 3 Yrotation Xrotation Zrotation
        JOINT RightWrist
        {
         OFFSET -24.478199 0.000000 0.000000
         CHANNELS 3 Yrotation Xrotation Zrotation
         End Site
         {
          OFFSET -18.090752 0.000000 0.000000
         }
        }
       }
      }
     }
     JOINT LeftCollar
     {
      OFFSET 2.923010 9.499495 0.000000
      CHANNELS 3 Yrotation Xrotation Zrotation
      JOINT LeftShoulder
      {
       OFFSET 13.795216 0.000000 0.000000
       CHANNELS 3 Yrotation Xrotation Zrotation
       JOINT LeftElbow
       {
        OFFSET 30.272209 0.000000 0.000000
        CHANNELS 3 Yrotation Xrotation Zrotation
        JOINT LeftWrist
        {
         OFFSET 24.478199 0.000000 0.000000
         CHANNELS 3 Yrotation Xrotation Zrotation
         End Site
         {
          OFFSET 18.090752 0.000000 0.000000
         }
        }
       }
      }
     }
    }
   }
  }
 }
 JOINT RightHip
 {
  OFFSET -7.826875 0.019532 0.001973
  CHANNELS 3 Yrotation Xrotation Zrotation
  JOINT RightKnee
  {
   OFFSET 0.000000 -40.546152 -0.001885
   CHANNELS 3 Yrotation Xrotation Zrotation
   JOINT RightAnkle
   {
    OFFSET 0.000000 -39.417092 -0.003189
    CHANNELS 3 Yrotation Xrotation Zrotation
    JOINT RightToe
    {
     OFFSET 0.000000 -7.579396 17.243563
     CHANNELS 3 Yrotation Xrotation Zrotation
     End Site
     {
      OFFSET 0.000000 -1.500329 6.694466
     }
    }
   }
  }
 }
 JOINT LeftHip
 {
  OFFSET 7.826875 0.019532 0.001973
  CHANNELS 3 Yrotation Xrotation Zrotation
  JOINT LeftKnee
  {
   OFFSET 0.000000 -40.546152 -0.001885
   CHANNELS 3 Yrotation Xrotation Zrotation
   JOINT LeftAnkle
   {
    OFFSET 0.000000 -39.417092 -0.003189
    CHANNELS 3 Yrotation Xrotation Zrotation
    JOINT LeftToe
    {
     OFFSET 0.000000 -7.579396 17.243563
     CHANNELS 3 Yrotation Xrotation Zrotation
     End Site
     {
      OFFSET 0.000000 -1.500329 6.694466
     }
    }
   }
  }
 }
}
MOTION
Frames: 11
Frame Time: 0.008333
-2.880334 51.078410 -25.268105 43.024955 -41.619497 -3.908877 -0.342571 14.198303 1.922360 -0.223242 8.114826 1.065976 -0.255806 10.144069 1.330837 -0.223242 8.114826 1.065976 2.852156 14.008134 -2.682785 3.639328 -10.946758 -3.498579 -2.605209 2.207769 -2.930016 16.279164 -3.402300 85.754108 60.223184 -9.534206 8.365910 -7.144986 -8.220741 -6.117592 16.104103 1.763029 0.612858 -0.276699 -3.312509 -84.478976 -49.730072 0.190031 -37.933851 -8.216728 2.029002 19.689985 -17.176425 -39.176539 11.323545 -119.102988 66.939261 -130.277233 -7.584710 -19.856580 6.753468 -0.155104 0.092265 -0.067350 16.111254 -42.085721 -6.091901 128.746467 67.073991 141.220530 -4.798698 -20.981963 -0.205459 0.123709 -0.099436 0.059151
-2.887240 51.077710 -25.275137 43.025600 -41.701171 -3.910751 -0.340962 14.183846 1.910672 -0.221660 8.107457 1.060590 -0.253966 10.134851 1.324122 -0.221660 8.107457 1.060590 2.853280 14.015812 -2.658354 3.634359 -10.939320 -3.472399 -2.639968 2.195271 -2.912746 16.342075 -3.432094 85.811363 60.117927 -9.538589 8.309939 -7.166191 -8.228505 -6.109270 16.099832 1.750646 0.634513 -0.292892 -3.351387 -84.520075 -49.613476 0.226911 -37.869370 -8.184057 2.029804 19.667854 -17.160838 -39.106523 11.277625 -119.115942 66.959247 -130.286541 -7.573671 -19.844622 6.742907 -0.166643 0.093579 -0.073941 16.088110 -42.019922 -6.050750 128.758936 67.087137 141.226978 -4.800841 -20.956204 -0.205618 0.131188 -0.102862 0.062451
-2.894317 51.077758 -25.282065 43.026787 -41.785058 -3.915058 -0.339108 14.170011 1.899700 -0.220007 8.100553 1.055138 -0.252036 10.126213 1.317324 -0.220007 8.100553 1.055138 2.856528 14.023715 -2.633961 3.631705 -10.931587 -3.446806 -2.673384 2.185216 -2.894047 16.402707 -3.465019 85.870468 60.008040 -9.544339 8.256175 -7.189036 -8.238702 -6.093837 16.096081 1.739439 0.659116 -0.310363 -3.390763 -84.560063 -49.498940 0.259663 -37.806545 -8.150731 2.028629 19.646064 -17.145911 -39.033502 11.233153 -119.127356 66.978544 -130.291949 -7.566610 -19.831703 6.733045 -0.177516 0.093753 -0.080769 16.061859 -41.954674 -6.007047 128.772848 67.096319 141.235848 -4.804360 -20.926751 -0.207732 0.136471 -0.109947 0.066197
-2.901918 51.078415 -25.289043 43.030244 -41.868981 -3.922888 -0.336666 14.156678 1.890462 -0.217726 8.093810 1.050265 -0.249307 10.117776 1.311268 -0.217726 8.093810 1.050265 2.860454 14.031592 -2.610456 3.630012 -10.923839 -3.422351 -2.710896 2.175697 -2.876373 16.461001 -3.501613 85.931841 59.888255 -9.552155 8.206351 -7.208085 -8.249802 -6.071589 16.089605 1.726351 0.684572 -0.329764 -3.428051 -84.599971 -49.385835 0.291070 -37.744483 -8.117557 2.022971 19.625823 -17.133376 -38.959494 11.193248 -119.132921 66.994170 -130.289956 -7.562489 -19.817648 6.722029 -0.185941 0.092718 -0.085334 16.031312 -41.891039 -5.959782 128.784509 67.103430 141.243680 -4.813397 -20.895841 -0.210459 0.140953 -0.117674 0.069927
-2.909850 51.080004 -25.295959 43.036695 -41.955801 -3.933514 -0.335374 14.144299 1.882577 -0.215494 8.087661 1.045605 -0.246631 10.110083 1.305477 -0.215494 8.087661 1.045605 2.864709 14.039611 -2.587389 3.628790 -10.915920 -3.398462 -2.756449 2.166504 -2.860866 16.524250 -3.539559 85.993519 59.762676 -9.566856 8.158057 -7.220597 -8.259720 -6.051565 16.082434 1.714627 0.709597 -0.348519 -3.465470 -84.641441 -49.272474 0.326022 -37.683871 -8.089793 2.015213 19.608798 -17.122865 -38.881663 11.158786 -119.128835 67.006181 -130.280384 -7.565005 -19.799096 6.714166 -0.194496 0.089375 -0.088794 15.995874 -41.825441 -5.908351 128.797351 67.110951 141.251825 -4.822857 -20.862968 -0.214520 0.148031 -0.126296 0.074422
-2.918004 51.083070 -25.302226 43.038141 -42.051871 -3.943103 -0.333197 14.132587 1.877023 -0.212836 8.083783 1.040243 -0.243431 10.105226 1.298816 -0.212836 8.083783 1.040243 2.870084 14.047830 -2.563265 3.628516 -10.907786 -3.373719 -2.808405 2.159699 -2.846306 16.593019 -3.577704 86.054485 59.637890 -9.588409 8.108925 -7.226626 -8.269439 -6.035018 16.077032 1.706285 0.735704 -0.366793 -3.504780 -84.685995 -49.158350 0.366172 -37.624129 -8.070682 2.005682 19.596018 -17.106504 -38.794952 11.127089 -119.115686 67.014670 -130.263796 -7.564170 -19.774569 6.706198 -0.199682 0.082323 -0.090489 15.959506 -41.751710 -5.849910 128.814408 67.119448 141.262964 -4.826647 -20.827045 -0.219620 0.156877 -0.138236 0.078344
-2.926608 51.087371 -25.307894 43.027084 -42.158118 -3.947496 -0.326629 14.120566 1.873882 -0.208540 8.083373 1.034094 -0.238187 10.104699 1.291206 -0.208540 8.083373 1.034094 2.875300 14.055625 -2.537271 3.627608 -10.900144 -3.346930 -2.859371 2.154521 -2.831955 16.658155 -3.616770 86.115833 59.511807 -9.615429 8.060715 -7.221252 -8.282125 -6.020832 16.073130 1.698096 0.763481 -0.386982 -3.545257 -84.733259 -49.044782 0.408681 -37.562692 -8.055750 1.992584 19.585899 -17.078359 -38.700141 11.096179 -119.101646 67.024304 -130.247385 -7.554506 -19.743400 6.693185 -0.198414 0.071494 -0.089026 15.928099 -41.668737 -5.784127 128.832003 67.130171 141.276137 -4.828632 -20.787255 -0.224590 0.165628 -0.153650 0.080767
-2.935279 51.092206 -25.313859 43.006732 -42.272674 -3.943970 -0.317384 14.110069 1.868496 -0.202890 8.085754 1.027211 -0.231254 10.107656 1.282708 -0.202890 8.085754 1.027211 2.879411 14.062620 -2.509717 3.625118 -10.893404 -3.318194 -2.910234 2.148124 -2.817194 16.722971 -3.656571 86.178733 59.382632 -9.649629 8.011889 -7.206885 -8.296879 -6.008926 16.069658 1.687767 0.792200 -0.408309 -3.585436 -84.778905 -48.932512 0.447222 -37.499759 -8.039851 1.979475 19.573799 -17.038514 -38.600805 11.060488 -119.091993 67.037148 -130.236150 -7.545859 -19.706040 6.680216 -0.198892 0.058209 -0.087594 15.904458 -41.577726 -5.719612 128.849306 67.141440 141.290119 -4.829112 -20.743598 -0.229642 0.172735 -0.172335 0.082744
-2.943593 51.096857 -25.320851 42.983612 -42.393911 -3.932600 -0.309649 14.102814 1.856231 -0.196884 8.089301 1.019387 -0.223893 10.112071 1.273039 -0.196884 8.089301 1.019387 2.884136 14.069089 -2.481030 3.623015 -10.887221 -3.288403 -2.962934 2.139691 -2.800182 16.790914 -3.694809 86.243416 59.254734 -9.685138 7.965515 -7.197512 -8.306530 -5.994880 16.066509 1.675769 0.821861 -0.427211 -3.625001 -84.820983 -48.818328 0.479715 -37.437752 -8.022837 1.971124 19.556071 -16.989951 -38.498921 11.015870 -119.090475 67.053009 -130.234461 -7.546676 -19.665133 6.673549 -0.208164 0.044384 -0.089468 15.884797 -41.479850 -5.662180 128.867618 67.151341 141.303248 -4.826937 -20.696919 -0.235580 0.177200 -0.193173 0.084955
-2.951755 51.100903 -25.328584 42.962212 -42.522090 -3.918738 -0.303918 14.098804 1.839996 -0.190884 8.092898 1.011588 -0.216539 10.116548 1.263401 -0.190884 8.092898 1.011588 2.888659 14.076571 -2.452730 3.620792 -10.879972 -3.258987 -3.017078 2.132784 -2.783647 16.858741 -3.728783 86.308954 59.131422 -9.715171 7.925783 -7.197525 -8.307475 -5.978426 16.061925 1.667978 0.850361 -0.441350 -3.665169 -84.859999 -48.702987 0.507392 -37.380826 -8.006333 1.966764 19.534236 -16.939789 -38.391027 10.966681 -119.095768 67.072129 -130.243241 -7.555260 -19.625219 6.673227 -0.222869 0.032574 -0.094372 15.859721 -41.376053 -5.605769 128.887540 67.159478 141.315374 -4.827251 -20.647571 -0.242392 0.179638 -0.214733 0.086889
-2.960124 51.104197 -25.336253 42.946358 -42.658549 -3.909665 -0.300053 14.098921 1.824692 -0.185334 8.097061 1.004655 -0.209729 10.121734 1.254837 -0.185334 8.097061 1.004655 2.892031 14.084887 -2.426019 3.617720 -10.871839 -3.231006 -3.070490 2.128722 -2.770139 16.924531 -3.759359 86.374175 59.010162 -9.738633 7.890411 -7.197250 -8.305386 -5.964272 16.058180 1.665391 0.877447 -0.453534 -3.704541 -84.898221 -48.589694 0.528722 -37.328099 -7.995814 1.959453 19.511065 -16.895131 -38.272675 10.917366 -119.092344 67.085777 -130.245397 -7.557822 -19.591936 6.672137 -0.235646 0.024490 -0.099003 15.822448 -41.266829 -5.543227 128.908587 67.165858 141.326936 -4.829730 -20.594931 -0.251215 0.182467 -0.236357 0.088766
